<svg width="121"
      height="25"
      viewBox="0 0 121 25"
      fill="none"
      xmlns="http://www.w3.org/2000/svg"
    >
      <path
        d="M20.0765 22.9898C21.6941 22.9898 23.0055 21.6804 23.0055 20.0652C23.0055 18.45 21.6941 17.1406 20.0765 17.1406C18.4588 17.1406 17.1475 18.45 17.1475 20.0652C17.1475 21.6804 18.4588 22.9898 20.0765 22.9898Z"
        fill="#F5D010"
      />
      <path
        d="M2.92901 18.3999C4.54666 18.3999 5.85802 17.0905 5.85803 15.4754C5.85803 13.8602 4.54666 12.5508 2.92901 12.5508C1.31136 12.5508 -1.83645e-07 13.8602 -4.10183e-07 15.4754C-6.3672e-07 17.0905 1.31136 18.3999 2.92901 18.3999Z"
        fill="#0094B7"
      />
      <path
        d="M15.4788 5.84914C17.0965 5.84914 18.4078 4.53977 18.4078 2.92457C18.4078 1.30938 17.0965 9.86964e-07 15.4788 6.35814e-07C13.8612 2.84663e-07 12.5498 1.30937 12.5498 2.92457C12.5498 4.53977 13.8612 5.84914 15.4788 5.84914Z"
        fill="#EF413D"
      />
      <path
        d="M12.2982 23.9576C9.69618 23.7671 7.10227 22.5793 5.34503 20.7735C4.6678 20.0776 4.66017 19.4313 5.32518 19.0921C5.78775 18.8561 6.06629 18.9589 6.76687 19.624C8.97936 21.7246 12.168 22.6065 15.1032 21.9296C16.0939 21.7011 16.2275 21.7054 16.5358 21.976C16.9758 22.3624 16.9618 23.0689 16.5077 23.3923C16.2044 23.6082 14.9349 23.878 13.836 23.9599C13.0875 24.0158 13.0935 24.0158 12.2982 23.9575V23.9576ZM22.5232 16.508C22.3058 16.4132 22.0486 16.1027 22.0079 15.8857C21.9688 15.6774 21.981 15.5929 22.1627 14.811C22.8527 11.8425 21.935 8.53614 19.8083 6.32784C19.1421 5.63616 19.0679 5.14371 19.5595 4.67781C19.9709 4.28789 20.4592 4.37102 20.9949 4.9222C23.7421 7.74861 24.8333 11.8679 23.8361 15.6475C23.6311 16.4246 23.1123 16.7647 22.5232 16.508ZM12.582 16.4739C10.1392 16.0961 8.72335 13.4415 9.78142 11.223C11.3858 7.85895 16.3097 8.6692 16.7598 12.3713C17.0478 14.7396 14.9144 16.8345 12.582 16.4739ZM2.7628 11.1442C2.24658 10.8364 2.20326 10.3933 2.57942 9.26824C3.77781 5.68395 6.70925 2.8958 10.2499 1.97272C11.8069 1.56679 12.1688 3.31624 10.6213 3.76805C7.55258 4.664 5.20033 6.95285 4.27683 9.94153C4.0148 10.7895 3.9492 10.9313 3.74757 11.0851C3.50362 11.2711 3.02391 11.3 2.7628 11.1442V11.1442Z"
        fill="#383F42"
      />
      <path
        fill-rule="evenodd"
        clip-rule="evenodd"
        d="M102.363 16.1213C101.203 17.2691 99.7847 17.843 98.0575 17.843C96.3303 17.843 94.8867 17.2691 93.7524 16.1213C92.6181 14.9735 92.051 13.5649 92.051 11.9215C92.051 10.2781 92.6181 8.86944 93.7782 7.72166C94.9383 6.57389 96.3561 6 98.0833 6C99.8105 6 101.228 6.57389 102.388 7.72167C103.523 8.86944 104.09 10.2781 104.09 11.9215C104.064 13.591 103.497 14.9735 102.363 16.1213ZM95.6085 14.4779C96.253 15.1822 97.0779 15.5213 98.0575 15.5213C99.0371 15.5213 99.8621 15.1822 100.507 14.4779C101.151 13.7736 101.46 12.9388 101.46 11.9215C101.46 10.9302 101.125 10.0694 100.481 9.36507C99.8363 8.66075 99.0114 8.32164 98.0317 8.32164C97.0521 8.32164 96.2272 8.66075 95.5827 9.36507C94.9383 10.0694 94.6289 10.9041 94.6289 11.9215C94.6547 12.9388 94.964 13.7997 95.6085 14.4779Z"
        fill="#383E42"
      />
      <path
        fill-rule="evenodd"
        clip-rule="evenodd"
        d="M40.621 18L39.3836 16.8783C38.3782 17.5305 37.2697 17.8696 36.0065 17.8696C34.2793 17.8696 32.8615 17.2957 31.7014 16.1479C30.5671 15.0001 30 13.5915 30 11.9481C30 10.3047 30.5671 8.89605 31.7272 7.74827C32.8873 6.60049 34.3051 6.02661 36.0323 6.02661C37.7595 6.02661 39.1774 6.6005 40.3374 7.74827C41.4717 8.89605 42.0388 10.3047 42.0388 11.9481C42.0388 13.148 41.7037 14.2697 41.0334 15.2349L42.1935 16.2262L40.621 18ZM36.0323 15.5218C36.5479 15.5218 37.0635 15.4175 37.5275 15.2088L35.6714 13.6176L37.2697 11.8177L39.1258 13.5132C39.332 13.0437 39.4351 12.522 39.4351 11.8959C39.4351 10.9047 39.1 10.0438 38.4555 9.33951C37.8111 8.63519 36.9861 8.29607 36.0065 8.29607C35.0269 8.29607 34.202 8.63519 33.5575 9.3395C32.913 10.0438 32.6037 10.8786 32.6037 11.8959C32.6037 12.9133 32.9388 13.748 33.5833 14.4523C34.2278 15.1827 35.0527 15.5218 36.0323 15.5218Z"
        fill="#383E42"
      />
      <path
        d="M45.4928 16.5369C46.3693 17.3978 47.5551 17.8412 49.1018 17.8412C50.6744 17.8412 51.886 17.3978 52.7882 16.5369C53.6647 15.6761 54.103 14.3718 54.103 12.6762V6.20695L51.6024 6.20695V12.8067C51.6024 13.6936 51.3962 14.3718 50.9579 14.8414C50.5197 15.3109 49.9268 15.5457 49.1534 15.5457C48.38 15.5457 47.7871 15.3109 47.3489 14.8153C46.9106 14.3196 46.7044 13.6153 46.7044 12.7023V6.20694L44.2038 6.20694V12.7545C44.2038 14.3979 44.6421 15.6761 45.4928 16.5369Z"
        fill="#383E42"
      />
      <path
        fill-rule="evenodd"
        clip-rule="evenodd"
        d="M60.3672 6.13008L55.5208 17.66L58.0729 17.66L59.104 15.0775L63.8989 15.0775L64.9301 17.66H67.508L62.6616 6.13008L60.3672 6.13008ZM62.9967 12.8602L59.9805 12.8602L61.5015 9.15604L62.9967 12.8602Z"
        fill="#383E42"
      />
      <path
        d="M69.4423 6.20694V17.6586L71.8913 17.6586V10.3807L77.3822 17.6586L79.4961 17.6586V6.20695L77.0471 6.20695V13.2501L71.7366 6.20694L69.4423 6.20694Z"
        fill="#383E42"
      />
      <path
        d="M85.0118 8.52858V17.6586L87.4866 17.6586V8.52858L90.941 8.52858V6.20695L81.5574 6.20694V8.52858L85.0118 8.52858Z"
        fill="#383E42"
      />
      <path
        fill-rule="evenodd"
        clip-rule="evenodd"
        d="M106.357 6.20694L111.538 6.20694C112.982 6.20695 114.065 6.59823 114.838 7.38081C115.483 8.03295 115.818 8.91987 115.818 10.0416C115.818 11.7893 115.019 12.9893 113.394 13.5892L116.153 17.6847L113.24 17.6847L110.791 14.0066L108.857 14.0066V17.6847L106.357 17.6847V6.20694ZM108.857 11.7632L111.384 11.7632C111.977 11.7632 112.466 11.6067 112.802 11.3198C113.137 11.0067 113.291 10.6155 113.291 10.1198C113.291 9.5981 113.111 9.18073 112.776 8.89379C112.441 8.60684 111.951 8.47641 111.332 8.47641L108.857 8.47641V11.7632Z"
        fill="#383E42"
      />
      <path
        d="M118.318 17.6586V6.20694L120.819 6.20694L120.819 17.6586L118.318 17.6586Z"
        fill="#383E42"
      />
    </svg>
