<svg xmlns="http://www.w3.org/2000/svg" version="1.1" xmlns:xlink="http://www.w3.org/1999/xlink" width="512" height="512" x="0" y="0" viewBox="0 0 130 130" style="enable-background:new 0 0 512 512" xml:space="preserve" class=""><g><path fill="#576cfb" d="m73.44 11.353-.036 65.984-1.204-.695.037-65.984z" opacity="1" data-original="#576cfb"></path><path fill="#4562ef" d="M90.038 1.698 90 67.682l-1.19.692.036-65.984z" opacity="1" data-original="#4562ef"></path><path fill="#576cfb" d="m88.847 2.39-.036 65.984-1.204-.695.037-65.984z" opacity="1" data-original="#576cfb"></path><path fill="#748bfd" d="m90.044 1.7-1.19.691-1.203-.694 1.19-.692z" opacity="1" data-original="#748bfd"></path><path fill="#4562ef" d="m74.63 10.661-.036 65.984-1.19.692.036-65.984z" opacity="1" data-original="#4562ef"></path><path fill="#748bfd" d="m74.637 10.663-1.19.691-1.204-.694 1.19-.692z" opacity="1" data-original="#748bfd"></path><path fill="#cad0dd" d="m128.993 81.167-.006 1.922-16.645 9.673.005-1.921z" opacity="1" data-original="#cad0dd"></path><path fill="#d4dae8" d="m112.347 90.84-.005 1.922L72.204 69.59l.006-1.922z" opacity="1" data-original="#d4dae8"></path><path fill="#e4e8f4" d="m128.993 81.167-16.646 9.674L72.21 67.667l16.645-9.673z" opacity="1" data-original="#e4e8f4" class=""></path><path fill="#efac41" d="m83.513 59.518.036 11.105 10.054 5.843-.035-11.105z" opacity="1" data-original="#efac41" class=""></path><path fill="#f9bb4a" d="m93.562 65.364.041 11.102 10.12-5.847-.034-11.092v-.016h-.017l-4.39 2.544-.997.582-.3.166z" opacity="1" data-original="#f9bb4a"></path><path fill="#fed57a" d="m83.511 59.525 10.057 5.843 4.42-2.56 1.28-.723.026-.013 4.395-2.547-10.057-5.843z" opacity="1" data-original="#fed57a"></path><path fill="#efac41" d="m99.3 56.966-10.058 5.843-1.28-.724-.025-.013 10.082-5.843.013.013z" opacity="1" data-original="#efac41" class=""></path><path fill="#d8983a" d="m89.246 62.803-.017 2.497-1.297-.748.017-2.48.997.565z" opacity="1" data-original="#d8983a"></path><path fill="#3f434f" d="m94.86 70.583.43.819-.266.154-.589.337zM95.024 71.556l.004 1.62-.322.186-.004-1.62zM96.621 72.4l.001.347-2.22 1.283-.001-.347zM102.422 66.858l.004 1.155c0 .364-.21.788-.49 1.002l.003 1.04c.196-.09.344-.081.345.028l-.866.5c0-.11.147-.288.343-.424l-.003-1.04c-.128.05-.238.038-.325-.016-.101-.076-.168-.217-.169-.42l-.003-1.154zM96.31 70.813l.005 1.62-.322.186-.004-1.62zM96.149 69.838l.428.82-.267.155-.586.336z" opacity="1" data-original="#3f434f"></path><path fill="#ffffff" d="M84.446 67.56v2.178l2.6 1.495.017-2.161z" opacity="1" data-original="#ffffff"></path><path fill="#efac41" d="m98.634 68.338.035 11.105 10.055 5.842-.035-11.104z" opacity="1" data-original="#efac41" class=""></path><path fill="#f9bb4a" d="m108.683 74.184.04 11.101 10.12-5.846-.033-11.092v-.017h-.017l-4.39 2.545-.997.582-.3.166z" opacity="1" data-original="#f9bb4a"></path><path fill="#fed57a" d="m98.632 68.345 10.057 5.842 4.42-2.559 1.28-.724.026-.013 4.395-2.546-10.057-5.843z" opacity="1" data-original="#fed57a"></path><path fill="#efac41" d="m114.42 65.785-10.057 5.843-1.28-.724-.025-.013 10.082-5.843.013.013z" opacity="1" data-original="#efac41" class=""></path><path fill="#d8983a" d="m104.367 71.623-.017 2.497-1.297-.749.016-2.48.998.566z" opacity="1" data-original="#d8983a"></path><path fill="#3f434f" d="m109.98 79.402.431.82-.267.153-.588.337z" opacity="1" data-original="#3f434f"></path><path fill="#3f434f" d="m110.144 80.375.005 1.62-.322.186-.004-1.62zM111.742 81.22l.001.347-2.22 1.282-.001-.347zM117.543 75.678l.003 1.154c.002.365-.21.788-.489 1.003l.003 1.04c.196-.09.344-.082.344.027l-.865.5c0-.109.147-.288.343-.424l-.003-1.04c-.128.05-.239.038-.325-.016-.101-.075-.168-.217-.169-.42l-.003-1.154zM111.431 79.632l.005 1.62-.322.186-.005-1.62zM111.27 78.658l.428.82-.267.154-.586.336z" opacity="1" data-original="#3f434f"></path><path fill="#ffffff" d="M99.567 76.38v2.178l2.6 1.495.016-2.162z" opacity="1" data-original="#ffffff"></path><path fill="#cad0dd" d="m128.993 56.532-.006 1.921-16.645 9.674.005-1.922z" opacity="1" data-original="#cad0dd"></path><path fill="#d4dae8" d="m112.347 66.205-.005 1.922-40.138-23.174.006-1.921z" opacity="1" data-original="#d4dae8"></path><path fill="#e4e8f4" d="m128.993 56.532-16.646 9.673L72.21 43.032l16.645-9.674z" opacity="1" data-original="#e4e8f4" class=""></path><path fill="#efac41" d="M120.664 42.845v7.17l-16.06 9.336v-7.17l4.016-2.335.86-.499z" opacity="1" data-original="#efac41" class=""></path><path fill="#f9bb4a" d="m104.605 52.182-.003 7.165L83.24 47.025l.002-7.165z" opacity="1" data-original="#f9bb4a"></path><path fill="#ffffff" d="M84.415 41.886v3.299l7.065 4.07v-3.298z" opacity="1" data-original="#ffffff"></path><path fill="#fed57a" d="m120.667 42.848-16.062 9.334L83.243 39.86l16.063-9.334z" opacity="1" data-original="#fed57a"></path><path fill="#f9bb4a" d="m113.077 47.259-.882.512L90.834 35.45l.881-.512z" opacity="1" data-original="#f9bb4a"></path><path fill="#e09c3b" d="M113.064 47.266v1.3l-.86.498v-1.3z" opacity="1" data-original="#e09c3b"></path><path fill="#cad0dd" d="m128.993 31.896-.006 1.922-16.645 9.673.005-1.922z" opacity="1" data-original="#cad0dd"></path><path fill="#d4dae8" d="m112.347 41.57-.005 1.921-40.138-23.173.006-1.922z" opacity="1" data-original="#d4dae8"></path><path fill="#e4e8f4" d="m128.993 31.896-16.646 9.673L72.21 18.396l16.645-9.673z" opacity="1" data-original="#e4e8f4" class=""></path><path fill="#576cfb" d="m112.396 33.823-.037 65.984-1.203-.694.037-65.984z" opacity="1" data-original="#576cfb"></path><path fill="#4562ef" d="m128.993 24.168-.036 65.985-1.19.691.036-65.984z" opacity="1" data-original="#4562ef"></path><path fill="#576cfb" d="m127.803 24.86-.037 65.984-1.203-.694.037-65.984z" opacity="1" data-original="#576cfb"></path><path fill="#748bfd" d="m129 24.17-1.19.692-1.204-.695 1.19-.692z" opacity="1" data-original="#748bfd"></path><path fill="#4562ef" d="m113.586 33.132-.036 65.984-1.19.691.036-65.984z" opacity="1" data-original="#4562ef"></path><path fill="#748bfd" d="m113.55 33.132-1.19.691-1.204-.694 1.19-.692z" opacity="1" data-original="#748bfd"></path><path fill="#31323d" d="m56.553 11.353.037 65.984 1.203-.695-.036-65.984z" opacity="1" data-original="#31323d"></path><path fill="#464957" d="m39.956 1.698.037 65.984 1.19.692-.037-65.984z" opacity="1" data-original="#464957"></path><path fill="#31323d" d="m41.146 2.39.037 65.984 1.203-.695-.036-65.984z" opacity="1" data-original="#31323d"></path><path fill="#4e5161" d="m39.993 1.698 1.19.692 1.203-.695-1.19-.692z" opacity="1" data-original="#4e5161"></path><path fill="#464957" d="m55.363 10.661.037 65.984 1.19.692-.037-65.984z" opacity="1" data-original="#464957"></path><path fill="#4e5161" d="m55.4 10.661 1.19.692 1.203-.695-1.19-.691z" opacity="1" data-original="#4e5161"></path><path fill="#37617b" d="m1 81.167.006 1.922 16.646 9.673-.006-1.921z" opacity="1" data-original="#37617b"></path><path fill="#416e84" d="m17.646 90.84.006 1.922L57.789 69.59l-.005-1.922z" opacity="1" data-original="#416e84"></path><path fill="#4c7891" d="m1 81.167 16.646 9.674 40.138-23.174-16.646-9.673z" opacity="1" data-original="#4c7891" class=""></path><path fill="#efac41" d="m52.495 56.67-.035 11.104-10.055 5.843.035-11.105z" opacity="1" data-original="#efac41" class=""></path><path fill="#f9bb4a" d="m42.446 62.515-.04 11.102-10.12-5.847.033-11.092v-.016h.017l4.39 2.544.998.582.299.166z" opacity="1" data-original="#f9bb4a"></path><path fill="#fed57a" d="M52.497 56.676 42.44 62.52l-4.42-2.56-1.28-.723-.026-.013-4.395-2.547 10.057-5.843z" opacity="1" data-original="#fed57a"></path><path fill="#efac41" d="m36.71 54.117 10.056 5.842 1.28-.723.026-.013-10.083-5.843-.013.013z" opacity="1" data-original="#efac41" class=""></path><path fill="#d8983a" d="m46.763 59.954.016 2.497 1.297-.748-.016-2.48-.998.565z" opacity="1" data-original="#d8983a"></path><path fill="#3f434f" d="m41.149 67.734-.43.819.266.154.588.337zM40.985 68.707l-.005 1.62.322.186.004-1.62zM39.387 69.551l-.001.347 2.22 1.282.002-.346zM33.586 64.01l-.003 1.154c-.001.364.21.788.489 1.002l-.003 1.04c-.196-.09-.344-.081-.344.028l.866.5c0-.11-.147-.288-.343-.424l.002-1.04c.128.05.239.038.325-.016.102-.076.168-.218.169-.42l.003-1.154zM39.698 67.964l-.005 1.62.322.186.005-1.62zM39.86 66.99l-.428.82.266.154.586.336z" opacity="1" data-original="#3f434f"></path><path fill="#ffffff" d="M51.562 64.711v2.178l-2.6 1.495-.016-2.161z" opacity="1" data-original="#ffffff"></path><path fill="#efac41" d="m37.374 65.489-.035 11.104-10.055 5.843.036-11.104z" opacity="1" data-original="#efac41" class=""></path><path fill="#f9bb4a" d="m27.325 71.335-.04 11.101-10.12-5.847.033-11.091v-.017h.017l4.39 2.544.998.583.3.166z" opacity="1" data-original="#f9bb4a"></path><path fill="#fed57a" d="M37.376 65.496 27.32 71.338l-4.421-2.56-1.28-.723-.026-.013-4.395-2.546 10.057-5.843z" opacity="1" data-original="#fed57a"></path><path fill="#efac41" d="m21.588 62.936 10.057 5.843 1.28-.724.026-.013L22.868 62.2l-.013.013z" opacity="1" data-original="#efac41" class=""></path><path fill="#d8983a" d="m31.642 68.774.016 2.497 1.298-.749-.017-2.48-.998.566z" opacity="1" data-original="#d8983a"></path><path fill="#3f434f" d="m26.028 76.553-.43.82.266.153.588.337z" opacity="1" data-original="#3f434f"></path><path fill="#3f434f" d="m25.864 77.526-.005 1.62.322.186.005-1.62zM24.266 78.37l-.001.348L26.485 80l.002-.347zM18.465 72.829l-.003 1.154c-.001.365.21.788.49 1.003l-.004 1.04c-.196-.09-.344-.082-.344.027l.866.5c0-.109-.147-.288-.343-.424l.003-1.04c.127.05.238.038.324-.016.102-.075.168-.217.169-.42l.003-1.154zM24.577 76.783l-.004 1.62.321.186.005-1.62zM24.739 75.809l-.428.82.266.154.586.336z" opacity="1" data-original="#3f434f"></path><path fill="#ffffff" d="M36.441 73.53v2.179l-2.6 1.495-.016-2.162z" opacity="1" data-original="#ffffff"></path><path fill="#37617b" d="m1 56.532.006 1.921 16.646 9.674-.006-1.922z" opacity="1" data-original="#37617b"></path><path fill="#416e84" d="m17.646 66.205.006 1.922 40.137-23.174-.005-1.921z" opacity="1" data-original="#416e84"></path><path fill="#4c7891" d="m1 56.532 16.646 9.673 40.138-23.173-16.646-9.674z" opacity="1" data-original="#4c7891" class=""></path><path fill="#37617b" d="m1 31.896.006 1.922 16.646 9.673-.006-1.922z" opacity="1" data-original="#37617b"></path><path fill="#416e84" d="m17.646 41.57.006 1.921 40.137-23.173-.005-1.922z" opacity="1" data-original="#416e84"></path><path fill="#4c7891" d="m1 31.896 16.646 9.673 40.138-23.173-16.646-9.673z" opacity="1" data-original="#4c7891" class=""></path><path fill="#31323d" d="m17.598 33.823.036 65.984 1.204-.694-.037-65.984z" opacity="1" data-original="#31323d"></path><path fill="#464957" d="m1 24.168.037 65.985 1.19.691-.036-65.984z" opacity="1" data-original="#464957"></path><path fill="#31323d" d="m2.19 24.86.037 65.984 1.204-.694-.037-65.984z" opacity="1" data-original="#31323d"></path><path fill="#4e5161" d="m1.037 24.168 1.19.692 1.204-.694-1.19-.692z" opacity="1" data-original="#4e5161"></path><path fill="#464957" d="m16.407 33.132.037 65.984 1.19.691-.036-65.984z" opacity="1" data-original="#464957"></path><path fill="#4e5161" d="m16.444 33.132 1.19.691 1.204-.694-1.19-.692z" opacity="1" data-original="#4e5161"></path><path fill="#efac41" d="m86.548 13.215.038 9.373 17.95 10.588-.039-9.374z" opacity="1" data-original="#efac41" class=""></path><path fill="#e4e8f4" d="m98.774 24.188.012 3.94 3.568 2.074-.012-3.94z" opacity="1" data-original="#e4e8f4" class=""></path><path fill="#f9bb4a" d="m104.497 23.802.038 9.374 10.92-6.305-.038-9.373z" opacity="1" data-original="#f9bb4a"></path><path fill="#fed57a" d="m86.545 13.223 17.952 10.587 4.77-2.762 1.381-.781.028-.014 4.743-2.748L97.467 6.918l-4.77 2.748-.015.014-1.366.78z" opacity="1" data-original="#fed57a"></path><path fill="#5b5e71" d="m91.316 10.46 17.951 10.588 1.381-.781.028-.014-17.98-10.587-.014.014z" opacity="1" data-original="#5b5e71"></path><path fill="#474b59" d="m109.267 21.048.013 4.533 1.396-.797-.013-4.533z" opacity="1" data-original="#474b59"></path><path fill="#3f434f" d="m91.03 20.928-.375.715.232.134.514.295zM90.887 21.777l-.004 1.415.281.162.004-1.415zM89.492 22.515v.303l1.939 1.12v-.304zM87.431 18.85l-.003 1.008c0 .318.183.688.428.875l-.003.909c-.171-.08-.3-.072-.3.023l.755.437c0-.096-.128-.252-.3-.37l.003-.909c.112.045.208.034.284-.014.089-.066.147-.19.147-.366l.003-1.008zM89.764 21.129l-.004 1.414.28.162.005-1.414zM89.905 20.278l-.374.716.233.135.512.293z" opacity="1" data-original="#3f434f"></path><path fill="#4c7891" d="m111.417 25.66.334.635-.207.12-.457.262z" opacity="1" data-original="#4c7891" class=""></path><path fill="#4c7891" d="m111.544 26.415.004 1.259-.25.144-.004-1.259zM112.786 27.072v.27l-1.725.995v-.27zM114.62 23.81l.003.897c0 .283-.163.612-.38.779l.002.808c.152-.07.267-.063.267.021l-.673.389c0-.085.115-.224.267-.33l-.002-.808c-.1.04-.185.03-.252-.012-.08-.059-.131-.169-.132-.326l-.002-.897zM112.544 25.838l.004 1.259-.25.144-.004-1.259zM112.419 25.08l.332.638-.207.12-.455.26z" opacity="1" data-original="#4c7891" class=""></path><path fill="#f9bb4a" d="m23.361 8.356 3.793-5.236 10.57 6.103-3.792 5.236z" opacity="1" data-original="#f9bb4a"></path><path fill="#efac41" d="M23.423 8.351 19.63 3.115 9.06 9.22l3.792 5.235zM33.366 14.454l-.034 11.339-10.01-5.186.034-11.932z" opacity="1" data-original="#efac41" class=""></path><path fill="#f9bb4a" d="m23.356 8.675-.034 11.932-9.945 5.186.034-11.339z" opacity="1" data-original="#f9bb4a"></path><path fill="#0e6600" d="M23.523 26.026c.997.576 1.002 1.509.011 2.084-.995.579-2.606.579-3.603.003-.997-.576-1.007-1.511-.012-2.09.991-.576 2.606-.573 3.604.003z" opacity="1" data-original="#0e6600"></path><path fill="#f9bb4a" d="m33.925 14.454-.034 11.339-10.502 6.103.034-11.339z" opacity="1" data-original="#f9bb4a"></path><path fill="#efac41" d="m23.35 20.557 3.793 5.236 10.57-6.103-3.792-5.236z" opacity="1" data-original="#efac41" class=""></path><path fill="#efac41" d="m23.423 20.557-.034 11.339-10.57-6.103.033-11.339z" opacity="1" data-original="#efac41" class=""></path><path fill="#f9bb4a" d="m23.35 20.557-3.791 5.236L8.988 19.69l3.864-5.236z" opacity="1" data-original="#f9bb4a"></path><path fill="#fed57a" d="m33.928 14.455-10.223 5.934-.283.169-2.967-1.713-1.84-1.061-3.033-1.75-2.732-1.58L23.36 8.357c-.018.114.013.22-.005.34l-9.945 5.759 2.34 1.35 2.864 1.653 1.846 1.061 2.96 1.713.29-.169 9.656-5.608-10.011-5.78.005-.36z" opacity="1" data-original="#fed57a"></path><path fill="#efac41" d="m57.952 123.58-3.847-2.235.015 5.416 3.847 2.236z" opacity="1" data-original="#efac41" class=""></path><path fill="#fed57a" d="m87.76 106.48-3.847-2.236-29.808 17.101 3.847 2.236z" opacity="1" data-original="#fed57a"></path><path fill="#f9bb4a" d="m57.952 123.58.015 5.417 29.808-17.102-.015-5.416z" opacity="1" data-original="#f9bb4a"></path><path fill="#efac41" d="m66.73 119.667.01 3.327-.052.03-2.876-1.672z" opacity="1" data-original="#efac41" class=""></path><path fill="#fed57a" d="m61.706 122.46 2.106-1.108 2.876 1.671-4.972 2.763z" opacity="1" data-original="#fed57a"></path><path fill="#ffffff" d="m64.393 121.69-2.687 1.297v-.528l2.106-1.107z" opacity="1" data-original="#ffffff"></path><path fill="#efac41" d="m84.011 109.69.01 3.326-.052.03-2.876-1.671z" opacity="1" data-original="#efac41" class=""></path><path fill="#fed57a" d="m70.437 117.527 10.656-6.152 2.876 1.671-13.523 7.808z" opacity="1" data-original="#fed57a"></path><path fill="#ffffff" d="m81.674 111.712-11.237 6.342v-.527l10.656-6.152z" opacity="1" data-original="#ffffff"></path><path fill="#efac41" d="m45.914 116.585-3.847-2.235.016 5.416L45.93 122z" opacity="1" data-original="#efac41" class=""></path><path fill="#fed57a" d="m75.722 99.484-3.846-2.236-29.809 17.102 3.847 2.235z" opacity="1" data-original="#fed57a"></path><path fill="#f9bb4a" d="m45.914 116.585.016 5.416L75.738 104.9l-.016-5.416z" opacity="1" data-original="#f9bb4a"></path><path fill="#efac41" d="m54.693 112.672.01 3.326-.052.03-2.877-1.671z" opacity="1" data-original="#efac41" class=""></path><path fill="#fed57a" d="m49.669 115.464 2.105-1.107 2.877 1.671-4.973 2.763z" opacity="1" data-original="#fed57a"></path><path fill="#ffffff" d="m52.355 114.694-2.686 1.297v-.527l2.105-1.107z" opacity="1" data-original="#ffffff"></path><path fill="#efac41" d="m71.974 102.694.01 3.327-.052.03-2.876-1.672z" opacity="1" data-original="#efac41" class=""></path><path fill="#fed57a" d="m58.4 110.532 10.656-6.153 2.876 1.672-13.523 7.807z" opacity="1" data-original="#fed57a"></path><path fill="#ffffff" d="M69.636 104.717 58.4 111.059v-.527l10.657-6.153z" opacity="1" data-original="#ffffff"></path><path fill="#efac41" d="m33.877 109.59-3.847-2.236.015 5.416 3.847 2.236z" opacity="1" data-original="#efac41" class=""></path><path fill="#fed57a" d="m63.685 92.488-3.847-2.235-29.808 17.101 3.847 2.236z" opacity="1" data-original="#fed57a"></path><path fill="#f9bb4a" d="m33.877 109.59.015 5.416L63.7 97.904l-.015-5.416z" opacity="1" data-original="#f9bb4a"></path><path fill="#efac41" d="m42.655 105.676.01 3.327-.052.03-2.876-1.672z" opacity="1" data-original="#efac41" class=""></path><path fill="#fed57a" d="m37.631 108.469 2.106-1.108 2.876 1.672-4.972 2.762z" opacity="1" data-original="#fed57a"></path><path fill="#ffffff" d="m40.318 107.699-2.687 1.297v-.527l2.106-1.108z" opacity="1" data-original="#ffffff"></path><path fill="#efac41" d="m59.936 95.699.01 3.327-.052.03-2.876-1.672z" opacity="1" data-original="#efac41" class=""></path><path fill="#fed57a" d="m46.362 103.536 10.656-6.152 2.876 1.671-13.523 7.808z" opacity="1" data-original="#fed57a"></path><path fill="#ffffff" d="m57.599 97.721-11.237 6.343v-.528l10.656-6.152z" opacity="1" data-original="#ffffff"></path><path fill="#474b59" d="m55.978 91.319.004 1.2 27.88 16.213-.004-1.2z" opacity="1" data-original="#474b59"></path><path fill="#525566" d="m83.858 107.532.004 1.2 3.898-2.25-.003-1.201z" opacity="1" data-original="#525566"></path><path fill="#5b5e71" d="m55.978 91.319 27.88 16.213 3.899-2.251-27.88-16.213z" opacity="1" data-original="#5b5e71"></path><path fill="#474b59" d="m47.523 96.18.004 1.2 27.88 16.213-.003-1.2z" opacity="1" data-original="#474b59"></path><path fill="#525566" d="m75.404 112.392.003 1.2 3.898-2.25-.003-1.2z" opacity="1" data-original="#525566"></path><path fill="#5b5e71" d="m47.523 96.18 27.88 16.212 3.899-2.25-27.88-16.213z" opacity="1" data-original="#5b5e71"></path><path fill="#474b59" d="m39.069 101.04.003 1.201 27.88 16.213-.003-1.2z" opacity="1" data-original="#474b59"></path><path fill="#525566" d="m66.949 117.253.003 1.2 3.899-2.25-.004-1.2z" opacity="1" data-original="#525566"></path><path fill="#5b5e71" d="m39.069 101.04 27.88 16.213 3.898-2.25-27.88-16.213z" opacity="1" data-original="#5b5e71"></path><path fill="#474b59" d="m30.614 105.902.003 1.2 27.88 16.213-.003-1.2z" opacity="1" data-original="#474b59"></path><path fill="#525566" d="m58.494 122.114.004 1.2 3.898-2.25-.004-1.2z" opacity="1" data-original="#525566"></path><path fill="#5b5e71" d="m30.614 105.902 27.88 16.212 3.898-2.25-27.88-16.213z" opacity="1" data-original="#5b5e71"></path><path fill="#efac41" d="m73.944 77.71-.032 20.783-9.148 5.316.032-20.783z" opacity="1" data-original="#efac41" class=""></path><path fill="#f9bb4a" d="m64.801 83.03-.037 20.78-9.207-5.32.03-20.772v-.015h.015l3.995 2.315.907.53.273.151z" opacity="1" data-original="#f9bb4a"></path><path fill="#fed57a" d="m73.946 77.717-9.15 5.316-4.022-2.33-1.165-.658-.023-.012-3.999-2.316 9.15-5.317z" opacity="1" data-original="#fed57a"></path><path fill="#efac41" d="m59.581 75.388 9.15 5.316 1.165-.659.023-.012-9.173-5.316-.012.012z" opacity="1" data-original="#efac41" class=""></path><path fill="#efac41" d="m69.92 75.388-9.15 5.316-1.165-.659-.024-.012 9.174-5.316.012.012z" opacity="1" data-original="#efac41" class=""></path><g fill="#d8983a"><path d="m68.728 80.7.016 20.787 1.18-.68-.015-20.774-.908.515zM60.777 80.7l-.015 20.787-1.18-.68.015-20.774.907.515z" fill="#d8983a" opacity="1" data-original="#d8983a"></path></g><path fill="#3f434f" d="m63.62 98.456-.391.745.242.14.536.307zM63.471 99.342l-.004 1.474.293.169.004-1.475zM62.018 100.11l-.001.316 2.02 1.166.001-.315zM56.74 95.068l-.003 1.05c-.001.332.19.717.445.912l-.003.947c-.178-.082-.313-.075-.313.024l.788.455c0-.099-.134-.262-.312-.385l.002-.947c.117.046.217.035.296-.014.092-.069.153-.198.153-.382l.003-1.05zM62.3 98.666l-.003 1.474.292.169.004-1.474zM62.448 97.78l-.39.746.243.14.533.305z" opacity="1" data-original="#3f434f"></path><path fill="#ffffff" d="M72.998 94.972v1.994l-2.35 1.353-.035-1.958z" opacity="1" data-original="#ffffff"></path><path fill="#efac41" d="m43.06 101.804.025 8.06 7.297 4.24-.025-8.06z" opacity="1" data-original="#efac41" class=""></path><path fill="#f9bb4a" d="m50.352 106.047.03 8.057 3.193-1.842.941-.543 3.21-1.859-.024-8.05v-.011h-.012l-3.186 1.846-.724.423-.217.12z" opacity="1" data-original="#f9bb4a"></path><path fill="#fed57a" d="m43.058 101.81 7.299 4.24 3.208-1.858.929-.525.019-.01 3.19-1.848-7.3-4.24z" opacity="1" data-original="#fed57a"></path><path fill="#efac41" d="m54.516 99.952-7.299 4.24-.928-.525-.019-.01 7.317-4.24.01.01z" opacity="1" data-original="#efac41" class=""></path><path fill="#d8983a" d="M47.22 104.188 47.208 106l-.942-.543.013-1.8.724.41z" opacity="1" data-original="#d8983a"></path><path fill="#3f434f" d="m51.294 109.834.313.594-.194.112-.427.245zM51.413 110.54l.003 1.176-.233.135-.003-1.176zM52.573 111.153v.252l-1.611.93-.001-.251zM56.783 107.131l.002.838a.99.99 0 0 1-.355.727l.002.756c.142-.066.25-.06.25.02l-.628.362c0-.08.106-.209.249-.308l-.003-.755c-.092.037-.173.028-.235-.011-.074-.055-.122-.158-.123-.305l-.002-.838zM52.347 110l.003 1.177-.233.135-.004-1.176z" opacity="1" data-original="#3f434f"></path><path fill="#3f434f" d="m52.23 109.294.31.595-.193.112-.425.244z" opacity="1" data-original="#3f434f"></path><path fill="#ffffff" d="M43.737 107.64v1.581l1.887 1.085.012-1.569z" opacity="1" data-original="#ffffff"></path><path fill="#efac41" d="m52.349 107.133.025 8.059 7.297 4.24-.026-8.059z" opacity="1" data-original="#efac41" class=""></path><path fill="#f9bb4a" d="m59.641 111.375.03 8.057 7.344-4.243-.024-8.05v-.012h-.012l-3.186 1.847-.725.422-.217.12z" opacity="1" data-original="#f9bb4a"></path><path fill="#fed57a" d="m52.347 107.138 7.298 4.24 3.209-1.857.928-.526.02-.01 3.189-1.847-7.299-4.24z" opacity="1" data-original="#fed57a"></path><path fill="#efac41" d="m63.805 105.28-7.299 4.24-.929-.525-.018-.01 7.317-4.24.01.01z" opacity="1" data-original="#efac41" class=""></path><path fill="#d8983a" d="m56.509 109.517-.012 1.812-.942-.543.012-1.8.724.41z" opacity="1" data-original="#d8983a"></path><path fill="#3f434f" d="m60.583 115.162.312.595-.193.112-.427.244zM60.702 115.869l.003 1.175-.233.135-.004-1.176zM61.861 116.482l.001.251-1.612.931v-.252zM66.071 112.46l.003.837a.99.99 0 0 1-.355.728l.002.755c.142-.065.25-.06.25.02l-.629.362c0-.079.107-.208.25-.307l-.003-.755c-.093.037-.173.028-.235-.011-.074-.055-.123-.158-.123-.305l-.002-.838zM61.636 115.33l.003 1.175-.234.135-.003-1.176zM61.518 114.622l.311.596-.193.111-.426.244z" opacity="1" data-original="#3f434f"></path><path fill="#ffffff" d="M53.025 112.97v1.58l1.887 1.085.012-1.569z" opacity="1" data-original="#ffffff"></path><path fill="#efac41" d="m85.807 84.879-.032 20.783-9.148 5.316.032-20.783z" opacity="1" data-original="#efac41" class=""></path><path fill="#f9bb4a" d="m76.664 90.198-.037 20.78-9.207-5.32.03-20.77v-.016h.016l3.994 2.315.908.53.272.15z" opacity="1" data-original="#f9bb4a"></path><path fill="#fed57a" d="m85.81 84.885-9.15 5.316-4.023-2.328-1.164-.659-.024-.012-3.999-2.317 9.15-5.316z" opacity="1" data-original="#fed57a"></path><path fill="#efac41" d="m71.445 82.557 9.15 5.316 1.164-.659.024-.012-9.174-5.316-.012.012z" opacity="1" data-original="#efac41" class=""></path><path fill="#efac41" d="m81.783 82.557-9.15 5.316-1.165-.659-.023-.012 9.173-5.316.012.012z" opacity="1" data-original="#efac41" class=""></path><g fill="#d8983a"><path d="m80.592 87.868.015 20.788 1.18-.68-.015-20.774-.908.515zM72.64 87.868l-.015 20.788-1.18-.68.015-20.774.908.515z" fill="#d8983a" opacity="1" data-original="#d8983a"></path></g><path fill="#3f434f" d="m75.484 105.625-.392.745.243.14.535.307zM75.335 106.51l-.004 1.475.292.168.004-1.474zM73.88 107.279v.316l2.02 1.166.001-.315zM68.603 102.236l-.003 1.05c0 .333.19.718.445.913l-.002.947c-.179-.082-.313-.075-.314.024l.788.455c0-.099-.134-.262-.312-.385l.003-.947c.116.046.216.035.295-.014.092-.07.153-.198.153-.382l.003-1.05zM74.164 105.834l-.004 1.475.293.169.004-1.475zM74.311 104.948l-.39.746.243.14.533.306z" opacity="1" data-original="#3f434f"></path><path fill="#ffffff" d="M84.862 102.141v1.994l-2.35 1.352-.036-1.957z" opacity="1" data-original="#ffffff"></path></g></svg>
